<?xml version="1.0" encoding="UTF-8"?>
<svg id="Layer_1" data-name="Layer 1" xmlns="http://www.w3.org/2000/svg" viewBox="0 0 206.21 74.59">
  <defs>
    <style>
      .cls-1 {
        fill: #dac3a1;
      }

      .cls-2 {
        isolation: isolate;
      }

      .cls-3 {
        fill: none;
        stroke: #dac3a1;
        stroke-miterlimit: 10;
        stroke-width: 3px;
      }
    </style>
  </defs>
  <g id="Layer_2" data-name="Layer 2">
    <g class="cls-2">
      <g class="cls-2">
        <path class="cls-1" d="M55.83,31.83h-.04c0-.23-.1-.43-.26-.6-.17-.17-.36-.25-.6-.25h-.17v-.13h1.07v.98ZM55.83,39.25v.98h-1.07v-.13h.17c.23,0,.43-.08.6-.25.17-.17.25-.36.26-.6h.04ZM57.8,30.85v9.37h-2.01v-9.37h2.01ZM58.63,30.85c.65,0,1.23.08,1.75.23.51.16.92.4,1.21.74s.44.77.44,1.32c0,.41-.08.76-.23,1.04-.16.28-.36.5-.61.66-.25.16-.51.25-.79.29.45.04.85.16,1.21.37.36.21.64.5.85.86s.31.78.31,1.26c0,.57-.16,1.05-.47,1.44-.31.39-.75.68-1.32.88-.57.2-1.23.29-1.98.29h-1.33c0-.2.01-.41.01-.6h.72c.4,0,.76-.08,1.06-.23.31-.15.55-.39.72-.71.17-.32.26-.73.26-1.23,0-.39-.06-.73-.18-1s-.28-.5-.48-.68-.44-.3-.7-.38c-.27-.08-.55-.12-.84-.12v-.12c.2,0,.41-.03.6-.1.2-.07.37-.17.53-.31s.28-.33.37-.57.13-.52.13-.85c0-.45-.07-.82-.21-1.1-.14-.28-.34-.48-.6-.6s-.56-.19-.9-.19h-1.73s-.01-.06-.03-.15-.06-.23-.1-.42h2.32Z"/>
        <path class="cls-1" d="M64.7,30.85v.8h-.04c0-.2-.07-.36-.21-.48-.14-.12-.31-.19-.5-.19h-.21v-.13h.96ZM66.67,30.85v5.89c0,.63.1,1.18.31,1.65.21.46.51.82.9,1.07.39.25.85.37,1.39.37s1.02-.12,1.41-.36c.4-.24.7-.57.92-1.01.21-.44.32-.95.32-1.55v-6.07h.96v5.99c0,.73-.15,1.37-.46,1.9-.31.54-.75.95-1.33,1.24-.58.29-1.27.43-2.08.43-.95,0-1.75-.14-2.4-.43s-1.14-.7-1.47-1.23c-.33-.53-.49-1.16-.49-1.9v-6h2.01ZM67.59,30.85v.13h-.21c-.2,0-.36.06-.5.19-.14.13-.21.29-.21.48h-.03v-.8h.95ZM71.96,30.85v.8h-.04c0-.2-.07-.36-.21-.48-.14-.12-.31-.19-.5-.19h-.21v-.13h.96ZM73.8,30.85v.13h-.21c-.2,0-.36.06-.5.19-.14.13-.21.29-.21.48h-.03v-.8h.95Z"/>
        <path class="cls-1" d="M75.67,31.83h-.04c0-.23-.1-.43-.26-.6-.17-.17-.36-.25-.6-.25h-.17v-.13h1.07v.98ZM75.67,39.25v.98h-1.07v-.13h.17c.23,0,.43-.08.6-.25.17-.17.25-.36.26-.6h.04ZM77.63,30.85v9.37h-2.01v-9.37h2.01ZM77.59,31.83v-.98h1.07v.13h-.17c-.23,0-.43.08-.6.25-.17.16-.25.36-.26.6h-.04ZM77.59,39.25h.04c0,.23.1.43.26.6.17.16.36.25.6.25h.17v.13h-1.07v-.98Z"/>
        <path class="cls-1" d="M80.85,31.83h-.04c0-.23-.1-.43-.26-.6-.17-.17-.36-.25-.6-.25h-.17v-.13h1.07v.98ZM80.85,39.25v.98h-1.07v-.13h.17c.23,0,.43-.08.6-.25.17-.17.25-.36.26-.6h.04ZM82.82,30.85v9.37h-2.01v-9.37h2.01ZM82.78,31.83v-.98h1.07v.13h-.17c-.23,0-.43.08-.6.25-.17.16-.25.36-.26.6h-.04ZM86.35,39.65l.32.58h-3.9v-.58h3.58ZM87.33,37.49l-.62,2.73h-2.62l.48-.58c.45,0,.84-.09,1.18-.26s.63-.42.87-.75c.24-.33.43-.71.58-1.15h.13Z"/>
        <path class="cls-1" d="M89.03,31.83h-.04c0-.23-.09-.43-.25-.6-.17-.17-.37-.25-.6-.25h-.16v-.13s1.06,0,1.06,0v.98ZM89.03,39.25v.98h-1.07v-.13h.17c.23,0,.43-.08.6-.25.17-.17.25-.36.26-.6h.04ZM91,30.85v9.37h-2.01v-9.37h2.01ZM92.82,30.85c1.05,0,1.96.19,2.73.57s1.36.92,1.77,1.62c.42.7.62,1.53.62,2.5s-.21,1.8-.62,2.5-1.01,1.24-1.77,1.62-1.68.57-2.73.57h-3.19v-.56h3.03c.64,0,1.2-.17,1.66-.5s.82-.81,1.07-1.43c.25-.62.37-1.35.37-2.2s-.13-1.58-.37-2.2c-.25-.62-.61-1.09-1.07-1.43s-1.02-.5-1.66-.5h-3.17v-.56h3.33Z"/>
        <path class="cls-1" d="M111.37,35.59c.02.48-.01.95-.09,1.41-.08.46-.22.89-.42,1.29-.2.4-.47.76-.82,1.07-.34.31-.77.56-1.29.73-.51.17-1.13.26-1.84.26-.4,0-.82-.03-1.26-.09-.44-.06-.86-.16-1.26-.3-.4-.14-.77-.33-1.09-.56-.33-.24-.58-.52-.77-.86-.19-.34-.28-.74-.28-1.21,0-.37.06-.69.19-.96.12-.27.29-.51.5-.71s.44-.36.68-.49c.24-.12.48-.22.72-.29.24-.07.44-.11.62-.12l.25.26c-.07.07-.16.16-.25.27-.1.11-.2.24-.29.41-.1.16-.18.36-.23.58s-.08.49-.06.79c.02.45.12.84.29,1.19.18.34.41.63.69.86s.6.4.96.52c.36.12.73.17,1.11.17.47,0,.89-.1,1.24-.3.35-.2.65-.46.88-.78.23-.32.4-.67.51-1.06.11-.38.15-.76.13-1.14-.02-.37-.1-.71-.24-1.02-.11-.21-.23-.37-.36-.47-.13-.1-.29-.15-.47-.15h-.2v-.13h3.13v.13h-.19c-.21,0-.34.07-.4.19-.06.13-.09.3-.09.52ZM106.87,30.66c.36,0,.71.04,1.05.11.34.07.66.18.94.31.29.14.5.31.66.53l-.48,1.91h-.12c0-.4-.06-.78-.17-1.12-.12-.35-.3-.63-.54-.85-.25-.22-.57-.33-.98-.33-.45,0-.81.15-1.09.44s-.42.67-.42,1.12c0,.52.19,1.01.58,1.48.39.47.95,1.02,1.68,1.67.19.16.4.35.64.56s.47.42.71.62.44.37.6.51c.48.41.92.79,1.31,1.12.39.34.75.62,1.08.85s.64.39.94.48v.15c-.35.04-.75.06-1.2.07-.46,0-.92-.04-1.41-.14s-.95-.31-1.41-.64c-.23-.17-.48-.36-.75-.58-.27-.21-.53-.43-.8-.65-.26-.22-.5-.42-.72-.61-.22-.19-.4-.34-.53-.46-.52-.45-.99-.89-1.41-1.33s-.76-.89-1.01-1.36-.37-.97-.37-1.49c0-.41.09-.77.27-1.06.18-.3.42-.55.73-.74s.66-.34,1.04-.44c.39-.09.79-.14,1.2-.14Z"/>
        <path class="cls-1" d="M125.71,36.31l.12,2.3c-.2.33-.46.63-.79.9-.33.27-.74.48-1.23.65-.49.16-1.07.25-1.74.25-1.09,0-2.04-.21-2.86-.6-.82-.39-1.45-.94-1.89-1.67-.45-.72-.67-1.6-.67-2.62s.22-1.86.66-2.59c.44-.73,1.06-1.29,1.88-1.68.82-.39,1.79-.59,2.93-.59.71,0,1.35.07,1.92.21.57.14,1.04.32,1.41.52l.03,2.29h-.12c-.24-.88-.63-1.51-1.18-1.89-.54-.38-1.18-.57-1.92-.57s-1.33.17-1.83.52c-.51.35-.9.84-1.18,1.47-.28.63-.42,1.39-.42,2.28s.13,1.65.4,2.29c.26.64.64,1.14,1.12,1.5.49.36,1.06.54,1.72.56.69,0,1.27-.11,1.74-.33.47-.22.85-.59,1.14-1.11.29-.52.51-1.21.65-2.09h.11Z"/>
        <path class="cls-1" d="M132.4,30.66c1.07,0,2,.2,2.79.6.79.4,1.4.96,1.83,1.68.43.72.65,1.59.65,2.6s-.22,1.86-.65,2.59-1.04,1.29-1.83,1.69c-.79.4-1.72.6-2.79.6s-2-.2-2.79-.6c-.79-.4-1.4-.96-1.83-1.68-.43-.72-.64-1.59-.64-2.6s.21-1.86.64-2.59c.43-.73,1.04-1.29,1.83-1.69.79-.4,1.72-.6,2.79-.6ZM132.4,39.85c.63,0,1.18-.18,1.64-.53.46-.35.81-.85,1.06-1.49.25-.64.37-1.41.37-2.29s-.12-1.65-.37-2.29c-.25-.64-.6-1.14-1.06-1.49s-1.01-.53-1.64-.53-1.17.18-1.63.53c-.46.35-.82.85-1.06,1.49-.25.64-.37,1.41-.37,2.29s.12,1.65.37,2.29c.25.64.6,1.14,1.06,1.49.46.35,1,.53,1.63.53Z"/>
        <path class="cls-1" d="M139.5,39.27v.95h-1.11v-.13h.26c.22,0,.42-.08.58-.24s.24-.35.24-.58h.04ZM139.43,30.65l1.93,2.05v7.53s-1.9,0-1.9,0v-7.9c0-.5-.05-1.06-.16-1.67h.13ZM139.43,30.65l8.54,8.14.16,1.62-8.54-8.13-.16-1.63ZM141.38,39.27c0,.22.08.41.24.58s.35.24.58.24h.26v.13h-1.11v-.95h.04ZM145.11,30.85h1.11v.95h-.03c0-.23-.09-.43-.25-.58-.16-.16-.35-.23-.58-.23h-.25v-.13ZM148.1,30.85v7.85c0,.33.01.63.04.89.03.26.07.54.12.82h-.12l-1.94-2.17v-7.39h1.9ZM149.17,30.85v.13h-.24c-.22,0-.42.08-.58.23-.16.16-.25.35-.26.58h-.04v-.95h1.11Z"/>
        <path class="cls-1" d="M153.28,30.66c.18,0,.4,0,.66.03.26.02.54.04.82.07.28.03.53.06.74.09.21.03.36.06.44.1l-.16,1.81h-.13c0-.46-.17-.84-.52-1.12-.34-.28-.8-.42-1.37-.42-.52,0-.94.13-1.25.38-.32.25-.48.55-.5.91,0,.27.08.5.25.7s.41.38.68.55l2.56,1.66c.41.23.72.54.93.91.21.37.3.81.27,1.31-.04.88-.38,1.56-1,2.04-.62.49-1.47.73-2.54.73-.39,0-.77-.03-1.15-.1-.37-.07-.7-.16-.98-.28-.29-.12-.51-.27-.68-.44-.07-.2-.1-.43-.09-.71s.05-.56.13-.84c.08-.29.17-.52.29-.71h.12c-.04.46.05.88.25,1.27s.5.7.88.92.85.34,1.39.33c.59,0,1.04-.16,1.37-.45.32-.29.48-.64.48-1.05,0-.28-.08-.53-.25-.75-.16-.22-.43-.44-.81-.64l-2.34-1.55c-.47-.27-.82-.61-1.03-1.03-.21-.42-.29-.88-.24-1.37.04-.46.17-.87.4-1.23.23-.35.55-.63.96-.82s.89-.3,1.45-.3ZM155.95,30.8l-.03.28h-1.58v-.28h1.61Z"/>
        <path class="cls-1" d="M158.62,30.85v.8h-.04c0-.2-.07-.36-.21-.48-.14-.12-.31-.19-.5-.19h-.21v-.13h.96ZM160.59,30.85v5.89c0,.63.1,1.18.31,1.65.21.46.51.82.9,1.07.39.25.85.37,1.39.37s1.01-.12,1.41-.36c.4-.24.7-.57.92-1.01.21-.44.32-.95.32-1.55v-6.07h.96v5.99c0,.73-.15,1.37-.46,1.9-.31.54-.75.95-1.33,1.24s-1.27.43-2.08.43c-.95,0-1.74-.14-2.4-.43s-1.14-.7-1.47-1.23c-.33-.53-.49-1.16-.49-1.9v-6h2.01ZM161.52,30.85v.13h-.21c-.2,0-.36.06-.5.19-.14.13-.21.29-.21.48h-.03v-.8h.95ZM165.88,30.85v.8h-.04c0-.2-.07-.36-.21-.48-.14-.12-.31-.19-.5-.19h-.21v-.13h.96ZM167.73,30.85v.13h-.21c-.2,0-.36.06-.5.19-.14.13-.21.29-.21.48h-.03v-.8h.95Z"/>
        <path class="cls-1" d="M169.59,31.83h-.04c0-.23-.1-.43-.26-.6s-.36-.25-.6-.25h-.17v-.13h1.07v.98ZM169.59,39.25v.98h-1.07v-.13h.17c.23,0,.43-.08.6-.25.16-.17.25-.36.26-.6h.04ZM171.56,30.85v9.37h-2.01v-9.37h2.01ZM171.52,31.83v-.98h1.07v.13h-.17c-.23,0-.43.08-.6.25s-.25.36-.26.6h-.04ZM175.1,39.65l.32.58h-3.9v-.58h3.58ZM176.07,37.49l-.62,2.73h-2.63l.48-.58c.45,0,.84-.09,1.18-.26.34-.17.63-.42.87-.75.24-.33.43-.71.58-1.15h.13Z"/>
        <path class="cls-1" d="M175.19,30.6c.09.04.23.07.41.11.18.04.39.07.61.09.22.03.43.04.62.04l-1.63.15v-.39ZM183.76,30.84v.56h-8.57v-.56h8.57ZM176.68,31.36v.04c-.41,0-.74.14-.98.38s-.37.58-.37,1v.15h-.13s0-1.57,0-1.57h1.49ZM178.51,39.25v.98h-1.07v-.13h.17c.23,0,.43-.08.6-.25.16-.17.25-.36.26-.6h.04ZM180.48,30.89v9.33h-2.01v-9.33h2.01ZM180.44,39.25h.04c0,.23.09.43.26.6.17.16.36.25.6.25h.17v.13h-1.07v-.98ZM183.76,30.6v.39l-1.63-.15c.2,0,.4-.01.62-.04.22-.03.42-.06.61-.09.19-.03.32-.07.4-.11ZM183.76,31.36v1.58h-.13v-.16c0-.42-.12-.75-.37-1s-.58-.37-1-.38v-.04h1.5Z"/>
      </g>
    </g>
  </g>
  <g>
    <path class="cls-1" d="M88.43,51.02l-1.12-1.6c-.07,0-.14,0-.21,0h-1.23v1.59h-1.02v-5.47h2.25c1.44,0,2.33.73,2.33,1.95,0,.83-.42,1.44-1.16,1.73l1.26,1.8h-1.09ZM87.06,46.41h-1.19v2.18h1.19c.89,0,1.35-.41,1.35-1.1s-.46-1.09-1.35-1.09Z"/>
    <path class="cls-1" d="M95.76,50.17v.85h-4.1v-5.47h3.99v.85h-2.98v1.42h2.64v.84h-2.64v1.51h3.09Z"/>
    <path class="cls-1" d="M101.53,49.75h-2.74l-.54,1.27h-1.05l2.46-5.47h1l2.47,5.47h-1.06l-.55-1.27ZM101.2,48.96l-1.03-2.39-1.02,2.39h2.06Z"/>
    <path class="cls-1" d="M104.93,45.55h1.02v4.61h2.86v.86h-3.88v-5.47Z"/>
    <path class="cls-1" d="M118.06,50.17v.85h-4.1v-5.47h3.99v.85h-2.98v1.42h2.64v.84h-2.64v1.51h3.09Z"/>
    <path class="cls-1" d="M119.82,50.44l.35-.79c.44.35,1.13.6,1.81.6.85,0,1.21-.31,1.21-.71,0-1.18-3.25-.41-3.25-2.44,0-.88.7-1.63,2.2-1.63.66,0,1.34.17,1.82.48l-.32.79c-.49-.29-1.03-.43-1.51-.43-.84,0-1.19.33-1.19.74,0,1.16,3.24.41,3.24,2.41,0,.88-.71,1.63-2.21,1.63-.85,0-1.7-.27-2.16-.66Z"/>
    <path class="cls-1" d="M127.32,46.41h-1.81v-.86h4.64v.86h-1.81v4.61h-1.02v-4.61Z"/>
    <path class="cls-1" d="M135.28,49.75h-2.74l-.54,1.27h-1.05l2.46-5.47h1l2.47,5.47h-1.06l-.55-1.27ZM134.94,48.96l-1.03-2.39-1.02,2.39h2.06Z"/>
    <path class="cls-1" d="M139.51,46.41h-1.81v-.86h4.64v.86h-1.81v4.61h-1.02v-4.61Z"/>
    <path class="cls-1" d="M148.3,50.17v.85h-4.1v-5.47h3.99v.85h-2.98v1.42h2.64v.84h-2.64v1.51h3.09Z"/>
  </g>
  <polyline class="cls-3" points="45.95 58.01 45.95 40.67 36.53 33.97 36.53 56.76 23.93 56.76 23.93 29.44 40.7 16.91 40.64 36.08"/>
</svg>