<?xml version="1.0" encoding="UTF-8"?>
<svg id="Layer_1" data-name="Layer 1" xmlns="http://www.w3.org/2000/svg" viewBox="0 0 160 160">
  <defs>
    <style>
      .cls-1 {
        fill: #d9c5a1;
      }
    </style>
  </defs>
  <path class="cls-1" d="M92.5,79.1h-2.5v-16.7l-6.9-4.8v21.5h-15v-29.3l19.1-14.1v21.5l5.3,3.9v18ZM84.6,55.1c-.2-4.6,0-9.5,0-14.1s0-.4,0-.4l-14.2,10.7v25.3h10v-24l4,2.7c.5,0,0-.2,0-.2h.2Z"/>
  <path class="cls-1" d="M99.3,89.8l4.5,6.6h.3c0-.2-.2-.3-.2-.4v-5.5l-.9-.4v-.3h3v.3l-.9.4v8.7l-1.5-.2-4.8-7.2h-.2c-.2,0,0,.2,0,.2v6.4l1.1.4v.3h-3.1c0-.6,1.1-.2,1.1-.9-.2-1.3.3-7.2-.1-7.8s-1-.2-1-.7h2.7v.1Z"/>
  <path class="cls-1" d="M51.7,99.2c-.1-.6.8-.3,1-.6v-.4c.2-1.3.2-6,0-7.2s0-.4-.2-.6c-.3-.3-.8-.2-.7-.6h5.1c.2,0,1.3.4,1.5.5,2.6,1.3,3,5.7.9,7.6s-2.1,1.2-2.7,1.2h-4.9v.1ZM54.5,90.4v7.9c.6.5,1.9.2,2.5-.1,2.4-1.1,2.4-5.7.5-7.2s-1.9-.7-3.1-.6h.1Z"/>
  <path class="cls-1" d="M90.2,89.7c6-.9,7.5,7.6,2.3,9.4s-8.6-8.4-2.3-9.4ZM90.5,90.3c-3.3.6-3,8.5.6,8.4s3.6-9.2-.6-8.4Z"/>
  <path class="cls-1" d="M24.8,89.8c1.5.2,2.6,1.9,1.8,3.3s-1,.7-1.4,1.2c2-.1,2.8,2.8,1.4,4s-1.5.9-2,.9h-4.6c-.1-.5.7-.3.9-.6v-8.2c-.2-.3-1,0-.9-.6,1.5.2,3.4-.2,4.8,0ZM22.7,94h1.2c2.6-.4,1.4-4.8-1.2-3.4v3.4ZM22.7,94.7v3.5c0,.7,2.1.5,2.7-.4,1.4-2-.8-3.5-2.7-3.1Z"/>
  <path class="cls-1" d="M73.2,93.6c0,.5-.5.3-.8.7-.4.6-.7,2.1-1.4,2.8.5.8,1.2,1.3,2,1.8s.3,0,.2.3c-1.4.1-2.3,0-3.2-1.1-1.4,1.1-4.2,1.8-5.4,0s.7-3.2,2-4.4c-.7-.9-1-1.9-.4-3,.9-1.5,3.8-1.4,3.8.5s-1.7,2-1.7,2.3l2,2.8c.4.3,1.3-1.9,1.1-2.3s-.7-.1-.8-.5h2.5l.1.1ZM68.1,90.3c-1.3,0-1.1,2.1-.2,2.7,1.4-.4,2-2.8.2-2.7ZM69.6,97.6l-2.5-3.2c-.4-.2-1.3,1.1-1.4,1.5-.5,2.2,2.3,3.1,3.9,1.8v-.1Z"/>
  <path class="cls-1" d="M117.7,89.8v.5h-.6l-.2.3c.1,2-.5,4.1,0,6.1s4.3,2.3,4.6-.4.2-4.6,0-5.5-1.1-.3-1.1-1h2.8c0,.6-.8.3-.9.7-.3,3.1,1.3,8.8-3.5,8.8s-3.3-5.6-4-9l-.9-.2.2-.3h3.6Z"/>
  <path class="cls-1" d="M32,89.8v.5h-.8c-.1,0-.1.2-.1.3-.2.8-.1,4.7,0,5.6.4,3.2,4.5,3.1,4.8-.3s.1-5.1-.2-5.5-.9-.1-1-.6h3c0,.6-.6.4-.9.6-.5.6-.1,5.1-.2,6.2-.4,3.5-6.8,3.7-7.2-.2s.2-5.5-.1-6-1,0-1-.7h3.8l-.1.1Z"/>
  <path class="cls-1" d="M112.7,90v2c-.7.1-.6-.5-.8-.8-.9-1.4-3.5-1.1-3.4.6s4.7,2,4.7,4.9-4.3,3.1-6.3,2.3v-2h.6c-.4,2,3.2,2.3,3.8.9s-1.7-2.4-2.8-3.2c-3.2-2-1.3-5.2,2.1-4.9s1.4.4,2.1.3v-.1Z"/>
  <path class="cls-1" d="M84.9,90v2.4l-.5-.2c0-1.4-.9-1.9-2.2-1.9-4.7,0-4.1,9.7.9,8.1s.5-.2.7-.4c.5-.4.5-1.3,1.1-1.3v2c-4,1.7-8.3,0-7.8-4.8s1.5-3.5,3.3-4.1,3,0,4.5,0v.2Z"/>
  <path class="cls-1" d="M139,89.6v2.4c-.8.1-.5-.5-.7-.9-.4-.9-1.7-.6-2.6-.6v8.1l1.1.4v.3h-3.6v-.5l.8-.2v-8.1c-1.5,0-2.4-.2-2.5,1.6h-.5v-2.4h8v-.1Z"/>
  <path class="cls-1" d="M128.3,89.8v.5h-.8v8.1c1.3.4,3.5.4,3.3-1.6h.5v2.4h-6.7c0-.7,1.1-.2,1.1-.9-.2-1.1.3-7.3-.1-7.9s-1,0-1-.7h3.8l-.1.1Z"/>
  <path class="cls-1" d="M47.8,89.8v.5h-.8v8.3c1.3,0,3.4.3,3.3-1.7h.5v2.4h-6.6c0-.6.7-.4.9-.6v-8.1c-.3-.3-1.1,0-1-.7h3.8l-.1-.1Z"/>
  <path class="cls-1" d="M42.8,89.8c0,.6-.7.4-.9.5s-.1.3-.2.5c-.2,1.4-.2,5.9,0,7.4s1,.2,1.1,1h-3.9c0-.5.9-.4,1-.6.2-.3.2-7,0-7.8s-.9-.1-1.1-1h4Z"/>
  <path class="cls-1" d="M50.7,106.2c1.4.3,1.6,2.3.2,2.9l1.1,1.6c-1.2.4-1.2-1-1.8-1.4s-.8-.1-1.2-.1v1.6h-.8v-4.5c.7,0,1.7-.1,2.4,0l.1-.1ZM49,108.6c2.8.4,2.9-2,0-1.6v1.6Z"/>
  <path class="cls-1" d="M111.6,107h-2.7c-.3,2.2,1.1.9,2.1,1.1,1,1.3-1.9.6-2.1.8v1.3h2.7v.6h-3.4c-.1-.6.2-1.1.2-1.6,0-.9-.5-2.1,0-2.9h3l.2.8v-.1Z"/>
  <polygon class="cls-1" points="55.6 107 55.6 108.3 57.8 108.1 57.8 108.9 55.6 108.9 55.6 110.2 58.3 110.2 58.3 110.8 54.8 110.8 54.8 106.5 55.1 106.2 58.1 106.2 58.2 106.5 58.1 107 55.6 107"/>
  <path class="cls-1" d="M78.5,107l.2,1.2h1.8l.2.5c0,.4-1.8.2-2.2.2v1.3h2.5v.6h-3.3v-4.3l.2-.2h2.8c.3,0,.3.8,0,.8h-2.3l.1-.1Z"/>
  <path class="cls-1" d="M99.8,110.8h-.8l-.6-1.1h-2.1l-.3,1.1h-.8l1.9-4.5h.5c.5.2,1.7,3.8,2.1,4.5h.1ZM98.4,109.1l-.9-1.9-.9,1.9h1.8Z"/>
  <path class="cls-1" d="M63.4,106.3l1.9,4.5h-.8l-.3-1h-2.3l-.4,1h-.8c.4-.7,1.7-4.3,2.1-4.5s.4,0,.5,0h.1ZM63.9,109.1l-.9-1.9-.8,1.9h1.7Z"/>
  <path class="cls-1" d="M86.8,106.6l-.2.6c-.1,0-2.2-.9-2.2.2s2.6.4,2.5,2.2-2.3,1.4-3.3.7l.4-.8c.3.8,2.3.9,2.2,0s-2.6-.4-2.5-2.2,1.9-1.3,3-.8l.1.1Z"/>
  <polygon class="cls-1" points="93.1 106.2 93.1 107 91.7 107 91.7 110.8 90.9 110.8 90.9 107 89.5 107 89.5 106.2 93.1 106.2"/>
  <polygon class="cls-1" points="105.5 106.2 105.5 107 104.1 107 104.1 110.8 103.3 110.8 103.3 107 101.9 107 101.9 106.2 105.5 106.2"/>
  <path class="cls-1" d="M68.8,110h2.3l.2.3v.5h-3.1v-4.5h.5l.2.2s-.1.1-.1.2v3.4-.1Z"/>
</svg>