<?xml version="1.0" encoding="UTF-8"?>
<svg id="Layer_1" data-name="Layer 1" xmlns="http://www.w3.org/2000/svg" viewBox="0 0 128.46 74.59">
  <defs>
    <style>
      .cls-1 {
        fill: #dac3a1;
      }

      .cls-2 {
        isolation: isolate;
      }

      .cls-3 {
        fill: none;
        stroke: #dac3a1;
        stroke-miterlimit: 10;
        stroke-width: 3px;
      }
    </style>
  </defs>
  <g id="Layer_2" data-name="Layer 2">
    <g class="cls-2">
      <g class="cls-2">
        <path class="cls-1" d="M6.7,52.75h-.04c0-.21-.09-.39-.23-.53-.15-.15-.33-.22-.53-.22h-.16v-.12h.96v.88ZM6.7,59.4v.88h-.96v-.12h.16c.21,0,.39-.07.53-.22.15-.15.23-.33.23-.53h.04ZM8.47,51.87v8.4h-1.8v-8.4h1.8ZM9.21,51.87c.58,0,1.11.07,1.57.21.46.14.82.36,1.09.66s.4.69.4,1.18c0,.37-.07.68-.21.93-.14.25-.32.45-.55.59-.22.14-.46.23-.71.26.4.03.76.14,1.09.34.32.19.58.45.76.77s.28.7.28,1.13c0,.51-.14.94-.42,1.29-.28.35-.67.61-1.18.79-.51.18-1.1.26-1.77.26h-1.19c0-.18.01-.36.01-.54h.65c.36,0,.68-.07.95-.2.28-.14.49-.35.65-.64.16-.29.23-.66.23-1.1,0-.35-.05-.65-.16-.9s-.25-.45-.43-.61-.39-.27-.63-.34c-.24-.07-.49-.11-.76-.11v-.11c.18,0,.36-.03.54-.09.18-.06.33-.15.47-.28s.25-.3.33-.51.12-.47.12-.76c0-.41-.06-.74-.19-.98-.13-.25-.31-.43-.53-.54s-.5-.17-.81-.17h-1.55s-.01-.05-.03-.14-.05-.21-.09-.38h2.08Z"/>
        <path class="cls-1" d="M14.65,51.87v.72h-.04c0-.18-.06-.32-.19-.43-.12-.11-.27-.17-.45-.17h-.19v-.12h.86ZM16.41,51.87v5.28c0,.57.09,1.06.28,1.48.19.42.46.74.8.96.35.22.76.34,1.24.34s.91-.11,1.27-.32c.36-.21.63-.51.82-.91.19-.39.29-.86.29-1.39v-5.44h.86v5.36c0,.66-.14,1.22-.41,1.7-.28.48-.67.85-1.19,1.11-.52.26-1.14.39-1.87.39-.85,0-1.56-.13-2.15-.39s-1.02-.63-1.31-1.1c-.29-.48-.44-1.04-.44-1.7v-5.38h1.8ZM17.24,51.87v.12h-.19c-.18,0-.33.06-.45.17-.12.11-.19.26-.19.43h-.02v-.72h.85ZM21.15,51.87v.72h-.04c0-.18-.06-.32-.19-.43-.12-.11-.27-.17-.45-.17h-.19v-.12h.86ZM22.81,51.87v.12h-.19c-.18,0-.33.06-.45.17-.12.11-.19.26-.19.43h-.02v-.72h.85Z"/>
        <path class="cls-1" d="M24.48,52.75h-.04c0-.21-.09-.39-.23-.53-.15-.15-.33-.22-.53-.22h-.16v-.12h.96v.88ZM24.48,59.4v.88h-.96v-.12h.16c.21,0,.39-.07.53-.22.15-.15.23-.33.23-.53h.04ZM26.24,51.87v8.4h-1.8v-8.4h1.8ZM26.2,52.75v-.88h.96v.12h-.16c-.21,0-.39.07-.53.22-.15.15-.23.33-.23.53h-.04ZM26.2,59.4h.04c0,.21.09.39.23.53.15.15.33.22.53.22h.16v.12h-.96v-.88Z"/>
        <path class="cls-1" d="M29.12,52.75h-.04c0-.21-.09-.39-.23-.53-.15-.15-.33-.22-.53-.22h-.16v-.12h.96v.88ZM29.12,59.4v.88h-.96v-.12h.16c.21,0,.39-.07.53-.22.15-.15.23-.33.23-.53h.04ZM30.88,51.87v8.4h-1.8v-8.4h1.8ZM30.85,52.75v-.88h.96v.12h-.16c-.21,0-.39.07-.53.22-.15.15-.23.33-.23.53h-.04ZM34.05,59.76l.29.52h-3.49v-.52h3.2ZM34.93,57.82l-.55,2.45h-2.35l.43-.52c.4,0,.75-.08,1.06-.23s.56-.38.78-.67c.22-.29.39-.63.52-1.03h.12Z"/>
        <path class="cls-1" d="M36.45,52.75h-.04c0-.21-.08-.39-.23-.53-.15-.15-.33-.22-.54-.22h-.14v-.12s.95,0,.95,0v.88ZM36.45,59.4v.88h-.96v-.12h.16c.21,0,.39-.07.53-.22.15-.15.23-.33.23-.53h.04ZM38.22,51.87v8.4h-1.8v-8.4h1.8ZM39.85,51.87c.94,0,1.76.17,2.45.51s1.22.82,1.59,1.45c.37.63.56,1.37.56,2.24s-.19,1.61-.56,2.24-.9,1.11-1.59,1.45-1.5.51-2.45.51h-2.86v-.5h2.71c.58,0,1.07-.15,1.49-.45s.74-.73.96-1.28c.22-.55.34-1.21.34-1.97s-.11-1.42-.34-1.97c-.22-.55-.54-.98-.96-1.28s-.91-.45-1.49-.45h-2.84v-.5h2.99Z"/>
        <path class="cls-1" d="M56.47,56.12c.02.43-.01.85-.08,1.27-.07.41-.2.8-.38,1.16-.18.36-.42.68-.73.96-.31.28-.69.5-1.15.65-.46.16-1.01.23-1.65.23-.36,0-.74-.03-1.13-.08-.39-.06-.77-.15-1.13-.27-.36-.12-.69-.29-.98-.5-.29-.21-.52-.47-.69-.77-.17-.3-.25-.66-.25-1.08,0-.33.06-.61.17-.86.11-.24.26-.46.45-.64s.39-.33.61-.44c.22-.11.43-.2.64-.26.21-.06.4-.1.56-.11l.23.23c-.06.06-.14.14-.23.24-.09.1-.18.22-.26.37-.09.15-.16.32-.21.52s-.07.44-.05.71c.02.4.1.75.26,1.06.16.31.37.56.62.77s.54.36.86.46c.32.1.65.16,1,.16.42,0,.79-.09,1.11-.27.32-.18.58-.41.79-.7.21-.29.36-.6.46-.95.1-.34.14-.68.12-1.02-.02-.34-.09-.64-.22-.91-.1-.19-.2-.33-.32-.42-.12-.09-.26-.13-.42-.13h-.18v-.12h2.81v.12h-.17c-.18,0-.3.06-.35.17-.05.12-.08.27-.08.46ZM52.44,51.7c.32,0,.63.03.94.1.31.06.59.16.85.28.26.12.45.28.59.47l-.43,1.72h-.11c0-.36-.05-.7-.16-1.01-.1-.31-.27-.57-.49-.76-.22-.2-.51-.29-.88-.29-.4,0-.73.13-.98.4s-.38.6-.38,1.01c0,.46.17.91.52,1.33.35.42.85.92,1.51,1.49.17.14.36.31.57.5s.42.38.64.55.39.33.53.46c.43.37.82.7,1.18,1.01.35.3.68.56.97.76s.58.35.84.43v.13c-.31.03-.67.05-1.08.06-.41,0-.83-.03-1.26-.13s-.85-.28-1.26-.57c-.21-.15-.43-.32-.67-.52-.24-.19-.48-.39-.71-.58-.24-.2-.45-.38-.65-.55-.2-.17-.35-.3-.47-.41-.46-.4-.89-.8-1.27-1.19s-.68-.8-.91-1.22-.34-.87-.34-1.34c0-.37.08-.69.24-.95.16-.27.38-.49.65-.67s.59-.31.94-.39c.35-.08.71-.13,1.07-.13Z"/>
        <path class="cls-1" d="M69.32,56.77l.11,2.06c-.18.3-.41.56-.71.8-.3.24-.66.43-1.1.58-.44.15-.96.22-1.56.22-.98,0-1.83-.19-2.56-.53-.73-.35-1.3-.85-1.7-1.49-.4-.65-.6-1.43-.6-2.35s.2-1.67.59-2.32c.39-.65.95-1.15,1.69-1.51.73-.35,1.61-.53,2.62-.53.64,0,1.21.06,1.72.19.51.13.93.28,1.27.47l.02,2.05h-.11c-.22-.79-.57-1.36-1.06-1.7-.49-.34-1.06-.51-1.72-.51s-1.19.16-1.64.47c-.46.31-.81.75-1.06,1.32-.25.57-.37,1.25-.37,2.04s.12,1.48.35,2.05c.24.58.57,1.02,1.01,1.34.44.32.95.49,1.54.5.62,0,1.14-.1,1.56-.3.42-.2.77-.53,1.03-1,.26-.46.45-1.09.58-1.87h.1Z"/>
        <path class="cls-1" d="M75.32,51.7c.96,0,1.79.18,2.5.53.71.36,1.26.86,1.64,1.51.39.65.58,1.42.58,2.33s-.19,1.67-.58,2.32-.94,1.16-1.64,1.51c-.71.36-1.54.53-2.5.53s-1.79-.18-2.5-.53c-.71-.36-1.25-.86-1.64-1.51-.38-.65-.58-1.42-.58-2.33s.19-1.67.58-2.32c.38-.65.93-1.16,1.64-1.51.71-.36,1.54-.53,2.5-.53ZM75.32,59.94c.57,0,1.06-.16,1.47-.47.41-.32.73-.76.95-1.34.22-.58.33-1.26.33-2.05s-.11-1.48-.33-2.05c-.22-.58-.54-1.02-.95-1.34s-.9-.47-1.47-.47-1.05.16-1.46.47c-.41.32-.73.76-.95,1.34-.22.58-.34,1.26-.34,2.05s.11,1.48.34,2.05c.22.58.54,1.02.95,1.34.41.32.9.47,1.46.47Z"/>
        <path class="cls-1" d="M81.68,59.42v.85h-1v-.12h.23c.2,0,.37-.07.52-.22s.22-.32.22-.52h.04ZM81.62,51.69l1.73,1.84v6.74s-1.7,0-1.7,0v-7.08c0-.45-.05-.95-.14-1.5h.12ZM81.62,51.69l7.66,7.3.14,1.45-7.66-7.28-.14-1.46ZM83.36,59.42c0,.2.07.37.22.52s.32.22.52.22h.23v.12h-1v-.85h.04ZM86.71,51.87h1v.85h-.02c0-.21-.08-.38-.22-.52-.14-.14-.31-.21-.52-.21h-.23v-.12ZM89.38,51.87v7.03c0,.3.01.56.04.8.02.24.06.48.11.74h-.11l-1.74-1.94v-6.62h1.7ZM90.34,51.87v.12h-.22c-.2,0-.37.07-.52.21-.14.14-.22.31-.23.52h-.04v-.85h1Z"/>
        <path class="cls-1" d="M94.03,51.7c.16,0,.36,0,.59.02.24.02.48.04.73.07.25.03.47.06.66.08.19.03.32.06.39.09l-.14,1.62h-.12c0-.42-.15-.75-.46-1-.31-.25-.72-.38-1.23-.38-.46,0-.84.11-1.12.34-.28.22-.43.5-.45.82,0,.24.07.45.23.62s.36.34.61.49l2.29,1.49c.37.21.65.48.83.82.19.34.27.73.25,1.18-.04.78-.34,1.39-.9,1.83-.56.44-1.32.65-2.28.65-.35,0-.69-.03-1.03-.09-.33-.06-.63-.14-.88-.25-.26-.11-.46-.24-.61-.39-.06-.18-.09-.39-.08-.64s.05-.5.11-.76c.07-.26.15-.47.26-.64h.11c-.03.41.04.79.22,1.13s.44.62.79.83.76.3,1.24.29c.53,0,.94-.14,1.22-.4.29-.26.43-.57.43-.94,0-.25-.07-.47-.22-.67-.15-.2-.39-.39-.73-.58l-2.1-1.39c-.42-.24-.73-.55-.92-.92-.19-.38-.26-.78-.22-1.22.03-.42.15-.78.36-1.1.21-.32.49-.56.86-.74s.8-.26,1.3-.26ZM96.42,51.82l-.02.25h-1.42v-.25h1.44Z"/>
        <path class="cls-1" d="M98.81,51.87v.72h-.04c0-.18-.06-.32-.19-.43-.12-.11-.27-.17-.45-.17h-.19v-.12h.86ZM100.58,51.87v5.28c0,.57.09,1.06.28,1.48.19.42.46.74.8.96.35.22.76.34,1.24.34s.91-.11,1.27-.32c.36-.21.63-.51.82-.91.19-.39.29-.86.29-1.39v-5.44h.86v5.36c0,.66-.14,1.22-.41,1.7-.28.48-.67.85-1.19,1.11s-1.14.39-1.87.39c-.85,0-1.56-.13-2.15-.39s-1.02-.63-1.31-1.1c-.29-.48-.44-1.04-.44-1.7v-5.38h1.8ZM101.41,51.87v.12h-.19c-.18,0-.33.06-.45.17-.12.11-.19.26-.19.43h-.02v-.72h.85ZM105.32,51.87v.72h-.04c0-.18-.06-.32-.19-.43-.12-.11-.27-.17-.45-.17h-.19v-.12h.86ZM106.98,51.87v.12h-.19c-.18,0-.33.06-.45.17-.12.11-.19.26-.19.43h-.02v-.72h.85Z"/>
        <path class="cls-1" d="M108.64,52.75h-.04c0-.21-.09-.39-.23-.53s-.33-.22-.53-.22h-.16v-.12h.96v.88ZM108.64,59.4v.88h-.96v-.12h.16c.21,0,.39-.07.53-.22.15-.15.23-.33.23-.53h.04ZM110.41,51.87v8.4h-1.8v-8.4h1.8ZM110.37,52.75v-.88h.96v.12h-.16c-.21,0-.39.07-.53.22s-.23.33-.23.53h-.04ZM113.58,59.76l.29.52h-3.49v-.52h3.2ZM114.45,57.82l-.55,2.45h-2.35l.43-.52c.4,0,.75-.08,1.06-.23.3-.16.56-.38.78-.67.22-.29.39-.63.52-1.03h.12Z"/>
        <path class="cls-1" d="M113.66,51.64c.08.03.2.06.37.1.16.03.35.06.55.08.2.02.38.04.55.04l-1.46.13v-.35ZM121.34,51.86v.5h-7.68v-.5h7.68ZM114.99,52.33v.04c-.37,0-.66.12-.88.34s-.33.52-.33.89v.13h-.12s0-1.4,0-1.4h1.33ZM116.64,59.4v.88h-.96v-.12h.16c.21,0,.39-.07.53-.22.15-.15.23-.33.23-.53h.04ZM118.4,51.91v8.36h-1.8v-8.36h1.8ZM118.36,59.4h.04c0,.21.08.39.23.53.15.15.33.22.53.22h.16v.12h-.96v-.88ZM121.34,51.64v.35l-1.46-.13c.18,0,.36-.01.56-.04.2-.02.38-.05.55-.08.17-.03.29-.06.36-.1ZM121.34,52.33v1.42h-.12v-.14c0-.38-.11-.67-.33-.89s-.52-.33-.89-.34v-.04h1.34Z"/>
      </g>
    </g>
  </g>
  <g>
    <path class="cls-1" d="M35.92,69.94l-1-1.44c-.06,0-.13,0-.19,0h-1.11v1.43h-.91v-4.9h2.02c1.29,0,2.09.66,2.09,1.74,0,.74-.38,1.29-1.04,1.55l1.13,1.61h-.98ZM34.69,65.81h-1.06v1.95h1.06c.8,0,1.21-.36,1.21-.98s-.41-.97-1.21-.97Z"/>
    <path class="cls-1" d="M42.48,69.18v.76h-3.68v-4.9h3.58v.76h-2.67v1.28h2.37v.75h-2.37v1.35h2.77Z"/>
    <path class="cls-1" d="M47.66,68.81h-2.45l-.48,1.13h-.94l2.21-4.9h.9l2.21,4.9h-.95l-.49-1.13ZM47.36,68.1l-.92-2.14-.92,2.14h1.84Z"/>
    <path class="cls-1" d="M50.7,65.04h.91v4.13h2.56v.77h-3.47v-4.9Z"/>
    <path class="cls-1" d="M62.46,69.18v.76h-3.68v-4.9h3.58v.76h-2.67v1.28h2.37v.75h-2.37v1.35h2.77Z"/>
    <path class="cls-1" d="M64.04,69.43l.31-.71c.39.32,1.02.54,1.62.54.76,0,1.09-.27,1.09-.64,0-1.06-2.91-.36-2.91-2.19,0-.79.63-1.46,1.98-1.46.59,0,1.2.15,1.63.43l-.29.71c-.44-.26-.92-.38-1.35-.38-.76,0-1.06.29-1.06.67,0,1.04,2.91.36,2.91,2.16,0,.78-.64,1.46-1.98,1.46-.76,0-1.53-.24-1.93-.59Z"/>
    <path class="cls-1" d="M70.76,65.81h-1.62v-.77h4.16v.77h-1.62v4.13h-.91v-4.13Z"/>
    <path class="cls-1" d="M77.9,68.81h-2.45l-.48,1.13h-.94l2.21-4.9h.9l2.21,4.9h-.95l-.49-1.13ZM77.6,68.1l-.92-2.14-.92,2.14h1.84Z"/>
    <path class="cls-1" d="M81.69,65.81h-1.62v-.77h4.16v.77h-1.62v4.13h-.91v-4.13Z"/>
    <path class="cls-1" d="M89.56,69.18v.76h-3.68v-4.9h3.58v.76h-2.67v1.28h2.37v.75h-2.37v1.35h2.77Z"/>
  </g>
  <polyline class="cls-3" points="74.25 45.66 74.25 28.32 64.83 21.62 64.83 44.41 52.23 44.41 52.23 17.09 69 4.56 68.94 23.73"/>
</svg>