<?xml version="1.0" encoding="UTF-8"?>
<svg id="Layer_1" xmlns="http://www.w3.org/2000/svg" version="1.1" viewBox="0 0 160 160">
  <defs>
    <style>
      .st0 {
        fill: #D9C5A1;
      }
    </style>
  </defs>
  <path fill="#0B1F38" d="M160,0v160H0V0h160ZM92.5,79.1v-17.9l-5.3-3.9v-21.5l-19.1,14.1v29.3h15v-21.5l6.9,4.8v16.7h2.5ZM84.9,90c-1.6-.2-3-.6-4.5,0s-3.1,2.2-3.3,4.1c-.4,4.8,3.8,6.4,7.8,4.8v-2c-.6,0-.6.9-1.1,1.3s-.4.3-.7.4c-5.1,1.6-5.6-8.1-.9-8.1s2.2.5,2.2,1.9l.5.2v-2.4ZM90.2,89.7c-6.3,1-4.4,11.6,2.3,9.4s3.7-10.3-2.3-9.4ZM112.7,90c-.7,0-1.4-.3-2.1-.3-3.4-.3-5.3,2.9-2.1,4.9s3.7,1.2,2.8,3.2-4.2,1.1-3.8-.9h-.6s0,2,0,2c2,.9,6.3.6,6.3-2.3s-4.6-2.9-4.7-4.9,2.5-2,3.4-.6.1,1,.8.8v-2ZM139,89.6h-8v2.4h.5c0-1.8,1-1.6,2.5-1.6v8.1l-.8.2v.5h3.6v-.3s-1.1-.4-1.1-.4v-8.1c.8,0,2.1-.3,2.6.6s0,1.1.7.9v-2.4ZM24.8,89.8c-1.4-.2-3.3.2-4.8,0-.1.5.7.3.9.6v8.2c-.2.3-1,0-.9.6h4.6c.4,0,1.6-.5,2-.9,1.3-1.2.6-4.1-1.4-4,.4-.5,1-.6,1.4-1.2.8-1.4-.2-3.1-1.8-3.3ZM32,89.8h-3.8c0,.6.7.4,1,.7s0,5,.1,6c.4,3.8,6.8,3.7,7.2.2s-.3-5.6.2-6.2.9,0,.9-.6h-3c0,.5.8.4,1,.6.3.4.3,4.8.2,5.5-.4,3.4-4.4,3.6-4.8.3s-.2-4.8,0-5.6,0-.2.1-.3h.8c0,0,0-.5,0-.5ZM42.8,89.8h-3.9c.1.9.9,0,1.1,1s.2,7.4,0,7.8-.9.1-1,.6h3.9c0-.8-.9,0-1.1-1s-.2-5.9,0-7.4,0-.4.2-.5c.3-.2,1,0,.9-.5ZM47.8,89.8h-3.8c0,.6.7.4,1,.7v8.1c0,.2-.9,0-.8.6h6.6v-2.4h-.5c0,2-1.9,2.1-3.4,1.7v-8.3c0,0,.9,0,.9,0v-.5ZM51.7,99.2h4.9c.6,0,2.2-.8,2.7-1.2,2.2-1.9,1.8-6.3-.9-7.6s-1.3-.5-1.5-.5h-5.1c-.1.5.4.3.7.6s.2.3.2.6c.2,1.2.2,5.9,0,7.2s0,.3,0,.4c-.2.3-1.2,0-1,.6ZM73.2,93.6h-2.5c0,.4.7.4.8.5.3.4-.7,2.6-1.1,2.3l-2-2.8c0-.3,1.7-1.2,1.7-2.3,0-1.8-3-2-3.8-.5s-.3,2.1.4,3c-1.3,1.2-3.2,2.4-2,4.4s4,1.1,5.4,0c.9,1.1,1.8,1.2,3.2,1.1,0-.4,0-.3-.2-.3-.7-.5-1.4-1-2-1.8.7-.7,1-2.2,1.4-2.8s.8-.2.8-.7ZM99.3,89.8h-2.7c0,.5.6.3,1,.7.5.7,0,6.6.1,7.8,0,.7-1.2.2-1.1.9h3.1v-.3s-1.1-.4-1.1-.4v-6.4s-.3-.2,0-.2h.2s4.8,7.2,4.8,7.2l1.5.2v-8.7l.9-.4v-.3s-3,0-3,0v.3s.9.4.9.4v5.5s.1.2.2.3h-.3c0,0-4.5-6.5-4.5-6.5ZM117.7,89.8h-3.5s-.3.3-.2.3l.9.2c.7,3.4-1.5,9,4,9s3.2-5.7,3.5-8.8c.1-.4,1-.1.9-.7h-2.8c0,.7.9.2,1.1,1s.1,4.5,0,5.5c-.3,2.7-3.9,3.3-4.6.4s0-4.1,0-6.1l.2-.3h.6c0,0,0-.5,0-.5ZM128.3,89.8h-3.8c0,.6.7.4,1,.7.4.5,0,6.7.1,7.9,0,.7-1.2.2-1.1.9h6.7v-2.4h-.5c.2,2-2,1.9-3.4,1.6v-8.1c0,0,.9,0,.9,0v-.5ZM50.7,106.2c-.7-.1-1.7,0-2.4,0v4.5h.8s0-1.6,0-1.6c.4,0,.8-.1,1.2.1.6.5.6,1.8,1.8,1.4l-1.1-1.6c1.4-.6,1.2-2.6-.2-2.9ZM55.6,107h2.4l.2-.5-.2-.2h-3l-.2.2v4.3h3.4v-.6h-2.7v-1.3h2.2v-.8s-2.2.2-2.2.2v-1.3ZM63.4,106.3c-.1,0-.4,0-.5,0-.5.2-1.8,3.8-2.1,4.5h.8s.4-1.1.4-1.1h2.3c0,0,.3,1.1.3,1.1h.8s-1.9-4.5-1.9-4.5ZM68.8,110v-3.4s.1,0,.1-.2l-.2-.2h-.5s0,4.5,0,4.5h3.1v-.5s-.3-.2-.3-.2h-2.3ZM78.5,107h2.3c.3,0,.3-.8,0-.8h-2.8l-.2.2v4.3h3.3v-.6h-2.5v-1.3c.4,0,2.1.2,2.2-.2l-.2-.6h-1.8c0,0-.2-1.1-.2-1.1ZM86.8,106.6c-1-.5-2.9-.7-3,.8s2.5,1.2,2.5,2.2-1.9.7-2.2,0l-.4.8c1,.7,3.2.9,3.3-.7s-2.5-1.3-2.5-2.2,2.1-.2,2.2-.2l.2-.6ZM93.1,106.2h-3.6v.8s1.4,0,1.4,0v3.8h.8v-3.8h1.4s0-.8,0-.8ZM99.8,110.8c-.4-.7-1.6-4.3-2.1-4.5s-.4,0-.5,0l-1.9,4.5h.8s.3-1,.3-1h2.1c0,0,.6,1,.6,1h.8ZM105.5,106.2h-3.6v.8s1.4,0,1.4,0v3.8h.8v-3.8h1.4s0-.8,0-.8ZM111.6,107l-.2-.8h-3c-.6.8,0,2,0,2.9s-.3,1.1-.2,1.6h3.4v-.6h-2.7v-1.3c.2-.2,3.1.5,2.1-.8-1-.3-2.4,1-2.1-1.1h2.7Z"/>
  <path class="st0" d="M92.5,79.1h-2.5v-16.7l-6.9-4.8v21.5h-15v-29.3l19.1-14.1v21.5l5.3,3.9v17.9ZM84.6,55.1c-.2-4.6,0-9.5,0-14.1s0-.4,0-.4l-14.2,10.7v25.3h10v-24l4,2.7c.5,0,0-.2,0-.2Z"/>
  <path class="st0" d="M99.3,89.8l4.5,6.6h.3c0-.2-.2-.3-.2-.4v-5.5l-.9-.4v-.3s3,0,3,0v.3s-.9.4-.9.4v8.7l-1.5-.2-4.8-7.2h-.2c-.2,0,0,.2,0,.2v6.4l1.1.4v.3h-3.1c0-.6,1.1-.2,1.1-.9-.2-1.3.3-7.2-.1-7.8s-1-.2-1-.7h2.7Z"/>
  <path class="st0" d="M51.7,99.2c-.1-.6.8-.3,1-.6,0-.1,0-.3,0-.4.2-1.3.2-6,0-7.2s0-.4-.2-.6c-.3-.3-.8-.2-.7-.6h5.1c.2,0,1.3.4,1.5.5,2.6,1.3,3,5.7.9,7.6s-2.1,1.2-2.7,1.2h-4.9ZM54.5,90.4v7.9c.6.5,1.9.2,2.5-.1,2.4-1.1,2.4-5.7.5-7.2s-1.9-.7-3.1-.6Z"/>
  <path class="st0" d="M90.2,89.7c6-.9,7.5,7.6,2.3,9.4s-8.6-8.4-2.3-9.4ZM90.5,90.3c-3.3.6-3,8.5.6,8.4s3.6-9.2-.6-8.4Z"/>
  <path class="st0" d="M24.8,89.8c1.5.2,2.6,1.9,1.8,3.3s-1,.7-1.4,1.2c2-.1,2.8,2.8,1.4,4s-1.5.9-2,.9h-4.6c-.1-.5.7-.3.9-.6v-8.2c-.2-.3-1,0-.9-.6,1.5.2,3.4-.2,4.8,0ZM22.7,94c.4,0,.8,0,1.2,0,2.6-.4,1.4-4.8-1.2-3.4v3.4ZM22.7,94.7v3.5c0,.7,2.1.5,2.7-.4,1.4-2-.8-3.5-2.7-3.1Z"/>
  <path class="st0" d="M73.2,93.6c0,.5-.5.3-.8.7-.4.6-.7,2.1-1.4,2.8.5.8,1.2,1.3,2,1.8s.3,0,.2.3c-1.4.1-2.3,0-3.2-1.1-1.4,1.1-4.2,1.8-5.4,0s.7-3.2,2-4.4c-.7-.9-1-1.9-.4-3,.9-1.5,3.8-1.4,3.8.5s-1.7,2-1.7,2.3l2,2.8c.4.3,1.3-1.9,1.1-2.3s-.7-.1-.8-.5h2.5ZM68.1,90.3c-1.3,0-1.1,2.1-.2,2.7,1.4-.4,2-2.8.2-2.7ZM69.6,97.6l-2.5-3.2c-.4-.2-1.3,1.1-1.4,1.5-.5,2.2,2.3,3.1,3.9,1.8Z"/>
  <path class="st0" d="M117.7,89.8v.5s-.6,0-.6,0l-.2.3c.1,2-.5,4.1,0,6.1s4.3,2.3,4.6-.4.2-4.6,0-5.5-1.1-.3-1.1-1h2.8c0,.6-.8.3-.9.7-.3,3.1,1.3,8.8-3.5,8.8s-3.3-5.6-4-9l-.9-.2c0,0,.2-.3.2-.3h3.5Z"/>
  <path class="st0" d="M32,89.8v.5s-.8,0-.8,0c-.1,0-.1.2-.1.3-.2.8-.1,4.7,0,5.6.4,3.2,4.5,3.1,4.8-.3s.1-5.1-.2-5.5-.9-.1-1-.6h3c0,.6-.6.4-.9.6-.5.6-.1,5.1-.2,6.2-.4,3.5-6.8,3.7-7.2-.2s.2-5.5-.1-6-1,0-1-.7h3.8Z"/>
  <path class="st0" d="M112.7,90v2c-.7.1-.6-.5-.8-.8-.9-1.4-3.5-1.1-3.4.6s4.7,2,4.7,4.9-4.3,3.1-6.3,2.3v-2s.6,0,.6,0c-.4,2,3.2,2.3,3.8.9s-1.7-2.4-2.8-3.2c-3.2-2-1.3-5.2,2.1-4.9s1.4.4,2.1.3Z"/>
  <path class="st0" d="M84.9,90v2.4l-.5-.2c0-1.4-.9-1.9-2.2-1.9-4.7,0-4.1,9.7.9,8.1s.5-.2.7-.4c.5-.4.5-1.3,1.1-1.3v2c-4,1.7-8.3,0-7.8-4.8s1.5-3.5,3.3-4.1,3,0,4.5,0Z"/>
  <path class="st0" d="M139,89.6v2.4c-.8.1-.5-.5-.7-.9-.4-.9-1.7-.6-2.6-.6v8.1l1.1.4v.3s-3.6,0-3.6,0v-.5s.8-.2.8-.2v-8.1c-1.5,0-2.4-.2-2.5,1.6h-.5s0-2.4,0-2.4h8Z"/>
  <path class="st0" d="M128.3,89.8v.5s-.8,0-.8,0v8.1c1.3.4,3.5.4,3.3-1.6h.5v2.4h-6.7c0-.7,1.1-.2,1.1-.9-.2-1.1.3-7.3-.1-7.9s-1,0-1-.7h3.8Z"/>
  <path class="st0" d="M47.8,89.8v.5s-.8,0-.8,0v8.3c1.3,0,3.4.3,3.3-1.7h.5v2.4h-6.6c0-.6.7-.4.9-.6v-8.1c-.3-.3-1.1,0-1-.7h3.8Z"/>
  <path class="st0" d="M42.8,89.8c0,.6-.7.4-.9.5-.2.1-.1.3-.2.5-.2,1.4-.2,5.9,0,7.4s1,.2,1.1,1h-3.9c0-.5.9-.4,1-.6.2-.3.2-7,0-7.8s-.9-.1-1.1-1h3.9Z"/>
  <path class="st0" d="M50.7,106.2c1.4.3,1.6,2.3.2,2.9l1.1,1.6c-1.2.4-1.2-1-1.8-1.4s-.8-.1-1.2-.1v1.6s-.8,0-.8,0v-4.5c.7,0,1.7-.1,2.4,0ZM49,108.6c2.8.4,2.9-2,0-1.6v1.6Z"/>
  <path class="st0" d="M111.6,107h-2.7c-.3,2.2,1.1.9,2.1,1.1,1,1.3-1.9.6-2.1.8v1.3h2.7v.6h-3.4c-.1-.6.2-1.1.2-1.6,0-.9-.5-2.1,0-2.9h3l.2.8Z"/>
  <polygon class="st0" points="55.6 107 55.6 108.3 57.8 108.1 57.8 108.9 55.6 108.9 55.6 110.2 58.3 110.2 58.3 110.8 54.8 110.8 54.8 106.5 55.1 106.2 58.1 106.2 58.2 106.5 58.1 107 55.6 107"/>
  <path class="st0" d="M78.5,107l.2,1.2h1.8c0,0,.2.5.2.5,0,.4-1.8.2-2.2.2v1.3h2.5v.6h-3.3v-4.3l.2-.2h2.8c.3,0,.3.8,0,.8h-2.3Z"/>
  <path class="st0" d="M99.8,110.8h-.8s-.6-1.1-.6-1.1h-2.1c0,0-.3,1.1-.3,1.1h-.8s1.9-4.5,1.9-4.5c.1,0,.4,0,.5,0,.5.2,1.7,3.8,2.1,4.5ZM98.4,109.1l-.9-1.9-.9,1.9h1.7Z"/>
  <path class="st0" d="M63.4,106.3l1.9,4.5h-.8s-.3-1-.3-1h-2.3c0,0-.4,1-.4,1h-.8c.4-.7,1.7-4.3,2.1-4.5s.4,0,.5,0ZM63.9,109.1l-.9-1.9-.8,1.9h1.7Z"/>
  <path class="st0" d="M86.8,106.6l-.2.6c-.1,0-2.2-.9-2.2.2s2.6.4,2.5,2.2-2.3,1.4-3.3.7l.4-.8c.3.8,2.3.9,2.2,0s-2.6-.4-2.5-2.2,1.9-1.3,3-.8Z"/>
  <polygon class="st0" points="93.1 106.2 93.1 107 91.7 107 91.7 110.8 90.9 110.8 90.9 107 89.5 107 89.5 106.2 93.1 106.2"/>
  <polygon class="st0" points="105.5 106.2 105.5 107 104.1 107 104.1 110.8 103.3 110.8 103.3 107 101.9 107 101.9 106.2 105.5 106.2"/>
  <path class="st0" d="M68.8,110h2.3s.2.3.2.3v.5s-3.1,0-3.1,0v-4.5h.5s.2.2.2.2c0,0-.1.1-.1.2v3.4Z"/>
  <path fill="#0B1F38" d="M84.5,56.2l-4-2.7v24h-10v-25.3l14.2-10.7"/>
  <path fill="#0B1F38" d="M54.5,90.4c1.2,0,2.1-.1,3.1.6,1.9,1.5,1.9,6.1-.5,7.2s-2,.6-2.5.1v-7.9Z"/>
  <path fill="#0B1F38" d="M90.5,90.3c4.2-.8,4.3,8.3.6,8.4s-3.9-7.8-.6-8.4Z"/>
  <path fill="#0B1F38" d="M22.7,94.7c1.9-.4,4.1,1.1,2.7,3.1s-2.7,1.1-2.7.4v-3.5Z"/>
  <path fill="#0B1F38" d="M22.7,94v-3.4c2.5-1.4,3.8,2.9,1.2,3.4s-.8,0-1.2,0Z"/>
  <path fill="#0B1F38" d="M69.6,97.6c-1.6,1.3-4.3.5-3.9-1.8s1-1.7,1.4-1.5l2.5,3.2Z"/>
  <path fill="#0B1F38" d="M68.1,90.3c1.8,0,1.2,2.4-.2,2.7-.9-.6-1.1-2.7.2-2.7Z"/>
  <path fill="#0B1F38" d="M49,108.6v-1.6c2.9-.5,2.8,2,0,1.6Z"/>
  <polygon fill="#0B1F38" points="98.4 109.1 96.7 109.1 97.6 107.2 98.4 109.1"/>
  <polygon fill="#0B1F38" points="63.9 109.1 62.2 109.1 63 107.2 63.9 109.1"/>
</svg>
